<?xml version="1.0" encoding="utf-8"?>
<!-- Generator: Adobe Illustrator 19.2.0, SVG Export Plug-In . SVG Version: 6.00 Build 0)  -->
<svg version="1.1" id="Layer_1" xmlns="http://www.w3.org/2000/svg" xmlns:xlink="http://www.w3.org/1999/xlink" x="0px" y="0px"
	 viewBox="0 0 563.1 645.5" style="enable-background:new 0 0 563.1 645.5;" xml:space="preserve">
<style type="text/css">
	.st0{fill:#E0E0E0;enable-background:new    ;}
	.st1{fill:#AD2383;enable-background:new    ;}
	.st2{opacity:0.1;fill:#FFFFFF;enable-background:new    ;}
</style>
<path class="st0" d="M487.2,174.1C438.3,122.5,387.1,73,336.5,23.1c-29.6-29.2-77.1-31.4-106.7-2.4
	c-55.5,54.4-112.9,107-163.9,165.8C10,250.9-9.7,327.6,4.4,411.1C27.4,547.8,143.9,644.9,285,645c11.7,1.5,27.1-0.6,42.2-3.2
	c127.7-22.6,222.9-121.4,234.8-253C569.3,306.9,543.9,233.9,487.2,174.1z"/>
<path class="st1" d="M36.5,295.8c-9.4,34.2-10.7,70.5-4.3,108.4c20.7,123,125.5,210.3,252.4,210.4c10.5,1.3,24.4-0.5,38-2.9
	c114.9-20.3,200.5-109.2,211.2-227.6c2.8-31,0.3-60.5-7.2-88.4H36.5z"/>
<path class="st2" d="M65.9,186.5C10,250.9-9.7,327.6,4.4,411.1C22.8,520.5,101.1,604.5,204,633.8v-588
	C156.7,91.5,109,136.8,65.9,186.5z"/>
</svg>
